<svg version="1.1" id="Layer_1" xmlns="http://www.w3.org/2000/svg" xmlns:xlink="http://www.w3.org/1999/xlink" x="0px" y="0px"
	 width="100%" viewBox="0 0 928 928" enable-background="new 0 0 928 928" xml:space="preserve">


<path fill="#ffffff" opacity="1.000000" stroke="none" 
	d="M471.360840,371.973114 
	C475.220337,365.511719 481.113525,360.562012 484.895325,353.883759 
	C475.888916,357.190735 467.163666,360.806488 458.521820,364.611572 
	C440.770508,372.427643 423.448364,380.936707 410.136261,395.685944 
	C393.253937,414.390839 391.153900,439.343079 412.143372,456.845703 
	C427.327942,469.507812 445.276306,476.561279 463.594666,482.752502 
	C491.034241,492.026550 518.714783,500.586945 546.167603,509.822845 
	C560.234009,514.555176 574.135010,520.015015 585.132690,530.524048 
	C595.315186,540.254211 596.266296,552.906616 587.109924,563.632507 
	C574.961121,577.863892 558.364380,585.385254 541.349854,592.010071 
	C540.424927,592.370239 538.607056,592.477966 538.620178,591.864502 
	C538.701904,588.044006 536.082397,590.460327 535.231262,590.578674 
	C528.979431,591.448486 522.794434,592.790588 516.547546,593.705078 
	C491.173950,597.419678 465.975830,596.687988 441.570221,588.383850 
	C406.066376,576.303589 381.878204,551.826782 366.851074,517.845215 
	C366.082947,516.108154 365.996429,513.871521 363.736969,513.191528 
	C362.303223,513.863708 362.452148,515.111328 362.323547,516.242188 
	C358.942139,545.974304 346.886322,571.099976 323.228546,590.120300 
	C319.576843,593.056213 319.769318,594.381348 323.735138,596.716187 
	C324.877869,597.388977 326.102051,597.949524 327.339752,598.430725 
	C345.500549,605.491150 363.763580,612.108032 382.892426,616.301636 
	C414.033081,623.128540 445.300812,624.184998 476.653473,618.926086 
	C507.327728,613.780884 536.550171,603.474792 565.450806,592.251404 
	C566.547852,591.825439 567.662109,590.816162 569.449890,592.460449 
	C562.158020,596.817993 554.742981,600.148071 547.201843,603.004211 
	C517.314453,614.323547 487.326904,625.378845 457.365753,636.502991 
	C430.117950,646.619751 403.705383,658.405823 379.854645,675.294250 
	C374.204773,679.294922 368.913055,683.736511 363.910706,688.932922 
	C365.553040,689.479004 366.303955,688.654968 367.153900,688.261780 
	C381.365814,681.686401 395.742676,675.472595 410.442230,670.094666 
	C446.422455,656.930908 483.283630,646.453430 519.696594,634.606506 
	C555.989807,622.798584 592.060547,610.430237 624.549988,589.701538 
	C640.894775,579.273315 655.326904,566.956421 665.162415,549.882080 
	C676.544617,530.122742 674.859314,509.318634 660.123596,491.892639 
	C649.642334,479.497772 635.843018,471.725067 621.333313,465.205902 
	C590.860474,451.514648 558.426636,443.560547 526.783997,433.290466 
	C510.151398,427.892059 493.374176,422.791138 479.007965,412.240204 
	C464.303864,401.441101 461.674225,388.483765 471.360840,371.973114 
M266.647675,478.965668 
	C256.673157,515.465515 250.536575,553.117249 233.259918,587.876526 
	C236.136551,587.417114 237.438232,585.828918 238.956909,584.642212 
	C264.817444,564.435303 290.478363,543.964844 317.253265,524.962158 
	C320.197540,522.872559 321.743164,520.280334 322.573853,516.919495 
	C327.919434,495.292755 333.400543,473.699066 338.639771,452.046783 
	C339.534332,448.349792 341.205322,446.534546 344.993164,445.638641 
	C355.675568,443.112030 366.217651,439.997406 376.879059,437.374695 
	C381.725494,436.182526 385.129547,434.315735 385.046509,428.558044 
	C385.016724,426.492523 386.181946,424.413513 386.778473,422.333984 
	C387.267365,420.629791 388.491241,418.817810 386.709595,417.247284 
	C385.144135,415.867401 383.313141,416.481476 381.489838,416.899841 
	C374.032562,418.611176 366.600555,420.510834 359.063446,421.765228 
	C354.964050,422.447479 350.741608,424.002625 346.054108,422.625763 
	C346.454102,420.470825 346.732635,418.683990 347.120819,416.921295 
	C354.125366,385.113953 361.204102,353.322784 368.124725,321.497223 
	C370.526306,310.453308 372.701965,299.353729 374.662659,288.223541 
	C375.528076,283.310913 374.097778,281.969452 369.819366,282.865173 
	C345.395325,287.978546 320.987427,293.169006 296.570099,298.314301 
	C293.021820,299.062012 291.976471,300.509155 294.453369,303.745728 
	C299.388855,310.194916 300.508881,317.732635 299.613068,325.520111 
	C297.041534,347.875397 291.467224,369.671814 286.716705,391.603912 
	C280.450592,420.533234 273.555969,449.326447 266.647675,478.965668 
M402.078461,261.509399 
	C418.385315,260.318787 434.697540,260.158691 450.963348,261.936035 
	C463.765137,263.334900 476.253967,266.057678 487.784210,272.170685 
	C496.908386,277.008057 504.089050,283.521759 507.584442,293.614838 
	C513.092041,309.518341 509.171906,324.030212 501.530731,338.123230 
	C495.072784,350.033966 486.187866,360.306793 479.063385,371.754700 
	C476.519684,375.842041 474.026062,380.147522 474.786438,386.280334 
	C486.487244,381.791168 496.052277,374.850037 506.539215,369.814880 
	C505.756958,372.365387 503.792206,373.376251 502.009583,374.536835 
	C494.619659,379.348114 487.530914,384.614960 479.549408,388.518646 
	C474.384460,391.044708 474.348572,393.312561 478.169495,397.646240 
	C480.412994,400.190765 482.492767,399.337189 484.836731,398.246643 
	C504.829529,388.944977 523.781555,377.879608 541.584656,364.853882 
	C554.257324,355.581909 566.695801,345.946472 575.436340,332.679657 
	C593.274170,305.604370 591.369568,275.729889 562.410217,255.821747 
	C544.189331,243.295792 523.598511,237.519241 502.002045,235.513702 
	C468.346771,232.388321 434.696136,234.078613 401.460022,239.784882 
	C343.431152,249.747757 286.877411,265.470306 231.561096,285.672394 
	C218.606689,290.403442 206.293488,296.507294 193.645416,301.858734 
	C198.748016,300.856873 203.796387,299.812744 208.763184,298.467438 
	C242.826569,289.240784 277.043091,280.711975 311.725922,274.054657 
	C341.336334,268.371033 370.977936,263.126038 402.078461,261.509399 
M596.471436,348.156647 
	C597.316650,348.472534 598.551331,348.267853 598.571716,350.128632 
	C589.481445,350.509766 580.387939,351.054199 571.367493,352.377441 
	C565.696960,353.209290 562.747559,357.434692 559.392578,361.403534 
	C561.303894,361.982452 562.944824,361.979797 564.585754,361.982849 
	C578.461304,362.008423 592.214233,363.362579 605.603394,367.012177 
	C619.083130,370.686462 631.341614,376.324677 637.460144,390.297699 
	C640.355652,396.910156 640.672729,403.788940 640.354919,410.829773 
	C640.257385,412.992554 639.261902,415.498932 642.615662,417.942230 
	C666.476868,391.326996 690.358643,364.688812 714.169922,338.129181 
	C712.655518,335.828094 710.720886,335.650757 708.978638,335.513214 
	C699.030457,334.727722 689.077820,333.599213 679.115295,333.471283 
	C649.994751,333.097229 620.883362,332.595581 591.770081,334.947357 
	C582.570190,335.690491 579.731873,342.036957 574.438782,347.764038
z"/>

  
</svg>
